_________________________  Visit us at _________________________
  
http://p2pdl.com  ____________________________  http://p2pdl.com

 
http://www.shotpix.com/images/50406781391837983987.jpg

Anna Karenina 2012 BRRip 720p x264 AAC - PRiSTiNE [P2PDL]
				
Genre: Joe Wright
Set in late-19th-century Russia high-society, the aristocrat Anna Karenina enters into a life-changing affair with the affluent Count Vronsky.
Director: Olivier Megaton
Stars: Keira Knightley, Jude Law, Aaron Taylor-Johnson
Rated: Rated R for some sexuality and violence

Info:  
http://www.imdb.com/title/tt1781769/



General
Complete name                  : Anna Karenina 2012 BRRip 720p x264 AAC - PRiSTiNE [P2PDL].mp4
Format                         : MPEG-4
Format profile                 : Base Media / Version 2
Codec ID                       : mp42
File size                      : 672 MiB
Duration                       : 2h 9mn
Overall bit rate mode          : Variable
Overall bit rate               : 726 Kbps

Source                         : Bluray 720p TRiPS (Thanks)

Video
Format                         : AVC
Width                          : 1 280 pixels
Height                         : 544 pixels
Display aspect ratio           : 2.35:1
Frame rate mode                : Variable
Frame rate                     : 23.976 fps
Scan type                      : Progressive
Bits/(Pixel*Frame)             : 0.038
Stream size                    : 593 MiB (88%)
Writing library                : x264 core 120

Audio
Format                         : AAC
Duration                       : 2h 9mn
Bit rate mode                  : Variable
Bit rate                       : 79.9 Kbps
Channel(s)                     : 2 channels
Channel positions              : Front: L R
Sampling rate                  : 48.0 KHz
Stream size                    : 74.1 MiB (11%)

Subtitle                       : Yes ( English)


Screens:
 
http://www.shotpix.com/images/21250446129126123878.jpg 
http://www.shotpix.com/images/22074948772281544170.jpg 
http://www.shotpix.com/images/50429640815462386275.jpg 
http://www.shotpix.com/images/43826610203255148016.jpg 
http://www.shotpix.com/images/55151890349486422570.jpg


Thumbs:
 
http://www.shotpix.com/images/59806485872037364683.jpg

----------------------------------------------------------------------------------------------------


Recommend to you to use latest version of VLC player. Install K-Lite Codec Pack or shark007 codecs
in case of any kind of problem in playback (For non-VLC Media Player users). Alternatively, install
Core AVC codecs, the fastest decoder that there is coupled with Community Center Codec Pack and play
on Windows Media Player Classic. Check sample to be sure.
Enjoy!

Greets to: VYTO, a2zRG, MusiK_KinG, Neon, Kuroyukihime, TorDigger, Ash968, StyLishSaLH and staff members at
ExtraTorrent, TPB, H33T, KAT, 1337x, PublicHD, Ahashare, BTScene, SilverTorrent, LimeTorrents, TorrentMafia,
P2PDL, and all others.

Encoder Notes: Looking For Early Access To Anything You Can Provide DVDScr, R5, DVDR, BluRay, Direct
Audio, Early Music Releases, Seedboxes, Dedicated Servers anything u can provide, Advance / Promo CDs/
DVDs. If You Got anything to offer contact me at "prg@hush.com".